# Blender v2.71 (sub 0) OBJ File: ''
# www.blender.org
o Mesh1_Model
v -0.068657 0.000000 0.903940
v -0.068659 -0.000000 -0.203353
v -0.018659 -0.000000 -0.203353
v 0.031341 -0.000000 -0.203354
v 0.081341 -0.000000 -0.203354
v 0.081343 0.000000 0.903940
v -0.068659 -0.000000 -0.596060
v -0.068659 -0.000000 -0.446058
v -0.068657 0.150000 0.903940
v -0.068659 0.150000 -0.596060
v 0.081341 -0.000000 -0.596060
v 0.081341 -0.000000 -0.446059
v 0.031341 -0.000000 -0.446059
v -0.018659 -0.000000 -0.446058
v 0.081341 0.150000 -0.596060
v 0.081343 0.150000 0.903940
v -0.018659 -0.150000 -0.546060
v 0.031341 -0.150000 -0.546060
v -0.018659 -0.150000 -0.303353
v 0.031341 -0.150000 -0.303354
v -0.056159 0.150000 -0.596060
v -0.056159 0.200000 -0.596060
v -0.018659 0.200000 -0.596060
v -0.018659 0.150000 -0.596060
v 0.031341 0.150000 -0.596060
v 0.031341 0.200000 -0.596060
v 0.068841 0.200000 -0.596060
v 0.068841 0.150000 -0.596060
v -0.018657 0.150000 0.903940
v -0.018658 0.150000 0.703940
v 0.031342 0.150000 0.703940
v 0.031343 0.150000 0.903940
v 0.068841 0.150000 -0.446059
v 0.031341 0.150000 -0.446059
v -0.018659 0.150000 -0.446059
v -0.056159 0.150000 -0.446058
v -0.018657 0.200000 0.903940
v -0.018658 0.200000 0.703940
v 0.031343 0.200000 0.903940
v 0.031342 0.200000 0.703940
v 0.068841 0.200000 -0.446059
v 0.031341 0.200000 -0.446059
v -0.018659 0.200000 -0.446059
v -0.056159 0.200000 -0.446058
vt 0.320000 0.100001
vt 0.320000 0.261804
vt 0.266667 0.261804
vt 0.266667 0.100001
vt 0.213333 0.100001
vt 0.213333 0.261804
vt 0.960000 0.395139
vt 0.960000 0.495139
vt 0.906667 0.495139
vt 0.906667 0.395139
vt 0.640000 0.066667
vt 0.800000 0.000000
vt 0.800000 0.161803
vt 0.640000 0.228471
vt 0.960000 0.595139
vt 0.906667 0.595139
vt 0.800000 0.133333
vt 0.853333 0.133333
vt 0.853333 0.295138
vt 0.800000 0.295138
vt 0.800000 0.456942
vt 0.640000 0.390274
vt 0.160000 0.261804
vt 0.160000 0.100001
vt 0.906667 0.133333
vt 0.906667 0.266667
vt 0.853333 0.266667
vt 0.800000 0.428471
vt 0.853333 0.428471
vt 0.853333 0.528472
vt 0.906667 0.528472
vt 0.906667 0.561805
vt 0.853333 0.561805
vt 0.800000 0.561804
vt 0.853333 0.395139
vt 0.906667 0.295138
vt 0.866667 0.595139
vt 0.866667 0.561805
vt 0.906667 0.428471
vt 0.960000 0.000000
vt 1.000000 0.000000
vt 1.000000 0.100001
vt 0.960000 0.100001
vt 0.906667 0.233334
vt 0.960000 0.133333
vt 0.960000 0.233334
vt 1.000000 0.133333
vt 1.000000 0.233334
vt 0.906667 0.366668
vt 0.960000 0.266667
vt 0.960000 0.366668
vt 0.853333 0.595137
vt 0.813333 0.595137
vt 0.813333 0.561804
vt 0.853333 0.100000
vt 0.813333 0.133333
vt 0.813333 0.100000
vt 0.800000 0.100000
vt 0.946667 0.100000
vt 0.946667 0.133333
vt 0.906667 0.100000
vt 0.693334 0.490275
vt 0.693333 0.456942
vt 0.746667 0.456942
vt 0.746667 0.490275
vt 0.800000 0.490275
vt 0.800000 0.590275
vt 0.640000 0.590275
vt 0.640000 0.490275
vt 0.000000 0.899999
vt 0.000000 0.738196
vt 0.000000 0.000000
vt 0.160000 0.000000
vt 0.160000 1.000000
vt 0.000000 1.000000
vt 0.640000 0.000000
vt 0.640000 1.000000
vt 0.586667 1.000000
vt 0.586667 0.866667
vt 0.533333 0.866667
vt 0.533333 1.000000
vt 0.480000 1.000000
vt 0.480000 0.000000
vt 0.493334 0.000000
vt 0.493334 0.100001
vt 0.533334 0.100001
vt 0.533334 0.000000
vt 0.586667 0.000000
vt 0.586667 0.100001
vt 0.626667 0.100001
vt 0.626667 0.000000
vt 0.480000 0.899999
vt 0.320000 1.000000
vt 0.320000 0.000000
vt 0.480000 0.738196
vn 0.000000 -1.000000 0.000000
vn -0.000000 0.554700 -0.832000
vn -1.000000 0.000000 0.000000
vn 0.000000 -0.554700 0.832100
vn 1.000000 0.000000 -0.000000
vn -0.000000 0.000000 -1.000000
vn -0.000000 1.000000 -0.000000
vn 0.000000 0.000000 1.000000
s off
f 12/1/1 5/2/1 4/3/1 13/4/1
f 14/5/1 13/4/1 4/3/1 3/6/1
f 17/7/2 14/8/2 13/9/2 18/10/2
f 19/11/3 3/12/3 14/13/3 17/14/3
f 4/9/4 3/8/4 19/15/4 20/16/4
f 17/17/1 18/18/1 20/19/1 19/20/1
f 18/21/5 13/22/5 4/14/5 20/20/5
f 2/23/1 8/24/1 14/5/1 3/6/1
f 30/25/3 29/26/3 37/27/3 38/18/3
f 32/28/5 31/20/5 40/19/5 39/29/5
f 31/30/6 30/31/6 38/32/6 40/33/6
f 39/34/7 40/28/7 38/29/7 37/33/7
f 41/10/5 33/35/5 28/19/5 27/36/5
f 42/32/8 34/16/8 33/37/8 41/38/8
f 26/29/3 25/39/3 34/31/3 42/30/3
f 27/40/7 26/41/7 42/42/7 41/43/7
f 35/44/5 24/25/5 23/45/5 43/46/5
f 43/46/7 23/45/7 22/47/7 44/48/7
f 21/49/3 36/26/3 44/50/3 22/51/3
f 36/52/8 35/53/8 43/54/8 44/33/8
f 25/55/6 26/18/6 27/56/6 28/57/6 15/58/6 11/12/6 7/40/6 10/43/6 21/59/6 22/60/6 23/25/6 24/61/6
f 32/62/8 39/63/8 37/64/8 29/65/8 9/66/8 1/67/8 6/68/8 16/69/8
f 8/70/3 2/71/3 1/72/3 9/73/3 10/74/3 7/75/3
f 10/76/7 9/77/7 29/78/7 30/79/7 31/80/7 32/81/7 16/82/7 15/83/7 28/84/7 33/85/7 34/86/7 25/87/7 24/88/7 35/89/7 36/90/7 21/91/7
f 12/92/5 11/82/5 15/93/5 16/94/5 6/83/5 5/95/5
f 5/2/1 6/93/1 1/74/1 2/23/1 3/6/1 4/3/1
f 11/94/1 12/1/1 13/4/1 14/5/1 8/24/1 7/73/1
l 25 28
l 21 24
